<svg width="40" height="40" viewBox="0 0 40 40" fill="none" xmlns="http://www.w3.org/2000/svg">
<circle cx="20.0009" cy="20.0009" r="16.5722" fill="white"/>
<circle cx="20" cy="20" r="19.5" stroke="white"/>
<path fill-rule="evenodd" clip-rule="evenodd" d="M15.6667 26.2614C14.6384 26.1361 13.8989 25.7767 13.4553 25.1762C12.8924 24.4144 12.6038 23.3075 12.6038 21.8413V15.8471C12.6038 15.2865 12.6904 14.8122 12.8491 14.3953C12.9213 14.1222 13.0656 13.8922 13.2676 13.7341C13.4697 13.576 13.6862 13.4753 13.9026 13.4466C14.1191 13.4178 14.3067 13.3747 14.4799 13.3316C14.6387 13.2741 14.7253 13.2166 14.7253 13.116V13.001H8V13.116C8 13.2022 8.11546 13.2741 8.3175 13.3316C8.36863 13.3425 8.42253 13.3543 8.4785 13.3666C8.64372 13.4029 8.82698 13.4431 9.01023 13.4753C9.25558 13.5185 9.50092 13.6622 9.70297 13.8922C9.91944 14.1222 10.0205 14.4528 10.0205 14.884V21.6976C10.0205 24.9813 11.9071 26.6622 15.6667 26.7267V26.2614Z" fill="black" fill-opacity="0.333333"/>
<path d="M24.5366 26.4154H25.4578C26.7008 26.4154 27.6805 26.0793 28.3971 25.4071C29.1136 24.7349 29.8301 23.5658 30.5467 21.8852C30.649 21.666 30.7368 21.5637 30.8538 21.5637C30.883 21.5637 30.9123 21.5637 30.9415 21.5637C30.9708 21.5637 30.9854 21.5637 31 21.5637L29.8886 27C29.2598 26.81 28.0169 26.7077 26.1597 26.7077H18V26.5908C18 26.4885 18.1024 26.4301 18.3217 26.3716C18.5411 26.3278 18.7897 26.2693 19.0529 26.2255C19.3307 26.167 19.5647 25.9916 19.784 25.6994C20.0034 25.4071 20.1057 24.9979 20.1057 24.4572V14.9144C20.1057 14.476 20.0034 14.1399 19.784 13.9061C19.5647 13.6722 19.3307 13.5261 19.0675 13.4823C18.8043 13.4384 18.5703 13.38 18.351 13.3361C18.1316 13.2777 18.0292 13.2046 18.0292 13.1169V13H24.8875V13.1169C24.8875 13.2192 24.7705 13.2923 24.5512 13.3361C24.3318 13.3946 24.0832 13.4384 23.82 13.4823C23.5568 13.5261 23.3082 13.6722 23.0889 13.9207C22.8695 14.1691 22.7525 14.5052 22.7525 14.929C22.7525 15.8351 22.7525 17.4718 22.7525 19.8392C22.7525 22.2067 22.7525 23.8288 22.7525 24.7495C22.7525 25.2902 22.8988 25.714 23.1766 25.9916C23.4544 26.2839 23.9224 26.4154 24.5512 26.4154H24.5366Z" fill="black" fill-opacity="0.333333"/>
</svg>
